<svg width="26" height="26" viewBox="0 0 26 26" fill="none" xmlns="http://www.w3.org/2000/svg">
<g clip-path="url(#clip0_3_169)">
<path d="M13 26C5.824 26 0 20.176 0 13C0 5.824 5.824 0 13 0C20.176 0 26 5.824 26 13C26 20.176 20.176 26 13 26ZM13 1.73333C6.77733 1.73333 1.73333 6.77733 1.73333 13C1.73333 19.2227 6.77733 24.2667 13 24.2667C19.2227 24.2667 24.2667 19.2227 24.2667 13C24.2667 6.77733 19.2227 1.73333 13 1.73333Z" fill="#0076BA"/>
<path d="M16.6746 17.9053L12.3846 13.6153C12.22 13.4507 12.1333 13.234 12.1333 13V6.06665H13.8666V12.6447L17.9053 16.6747L16.6746 17.9053Z" fill="#0076BA"/>
</g>
<defs>
<clipPath id="clip0_3_169">
<rect width="26" height="26" fill="white"/>
</clipPath>
</defs>
</svg>
