<svg width="189" height="28" viewBox="0 0 189 28" fill="none" xmlns="http://www.w3.org/2000/svg">
<path d="M188.883 27.2333V26.6127L187.97 26.3572C186.692 25.9921 186.437 25.8096 186.437 23.2177V14.2737C186.437 10.8057 184.246 8.68832 180.705 8.68832C178.113 8.68832 176.288 10.039 174.572 11.6818H174.536V9.05338L174.28 8.87085L166.833 9.74699V10.4041L167.892 10.6231C169.169 10.8787 169.425 11.1707 169.425 13.7627V23.2177C169.425 25.8096 169.169 25.9921 167.892 26.3572L166.979 26.6127V27.2333H177.201V26.6127L176.288 26.3572C175.01 25.9921 174.755 25.8096 174.755 23.2177V13.9087C174.755 12.8865 175.96 11.7913 177.785 11.7913C179.829 11.7913 181.107 13.069 181.107 15.2229V23.2177C181.107 25.8096 180.851 25.9921 179.574 26.3572L178.661 26.6127V27.2333H188.883Z" fill="white"/>
<path d="M164.802 23.2542L164.328 22.6336C163.196 23.4367 161.699 23.9113 160.312 23.9113C155.639 23.9113 152.719 20.9543 152.463 16.4276H164.729C164.729 16.2086 164.766 15.9165 164.766 15.661C164.766 11.3898 161.407 8.65182 157.318 8.65182C151.733 8.65182 148.375 13.3976 148.375 18.2164C148.375 23.6923 151.733 27.7079 157.063 27.7079C160.494 27.7079 162.904 25.6271 164.802 23.2542ZM152.463 14.8943C152.682 12.558 153.85 10.2946 156.515 10.2946C158.158 10.2946 159.801 11.6453 159.801 13.3611C159.801 14.8943 158.304 14.8943 157.099 14.8943H152.463Z" fill="white"/>
<path d="M146.613 27.2334V26.6128L145.7 26.3573C144.422 25.9922 144.167 25.8097 144.167 23.2178V0.18253L143.911 0L136.245 0.876142V1.53325L137.304 1.75229C138.581 2.00783 138.837 2.29988 138.837 4.8918V23.2178C138.837 25.8097 138.581 25.9922 137.304 26.3573L136.391 26.6128V27.2334H146.613Z" fill="white"/>
<path d="M135.719 25.919L135.427 25.1889C135.172 25.2984 134.77 25.4444 134.332 25.4444C133.273 25.4444 132.835 24.6778 132.835 22.4144V15.2593C132.835 10.9516 130.353 8.7612 126.118 8.7612C124.293 8.7612 122.431 9.3453 121.007 10.2579C119.912 10.9516 118.452 12.1928 118.452 13.653C118.452 14.3466 118.817 14.9672 119.693 14.9672C120.314 14.9672 121.044 14.7482 121.555 14.4561L121.701 14.2006V12.9594C121.701 11.7547 122.322 10.8055 124.074 10.8055C126.264 10.8055 127.505 12.4848 127.505 14.6022V16.902C121.957 17.9242 117.466 19.0559 117.466 23.3636C117.466 26.0285 119.365 27.7078 122.176 27.7078C124.548 27.7078 126.045 26.5761 127.724 24.8968H127.797C128.053 26.8316 129.148 27.5983 131.193 27.5983C132.945 27.5983 134.807 26.7586 135.719 25.919ZM127.505 22.816C127.505 23.7651 126.775 24.6048 125.388 24.6048C123.782 24.6048 122.869 23.4366 122.869 21.9764C122.869 19.5305 125.169 18.7638 127.505 18.3258V22.816Z" fill="white"/>
<path d="M116.009 27.2334V26.5763L114.95 26.3573C113.673 26.1017 113.417 25.8097 113.417 23.2178V0.18253L113.161 0L105.495 0.876142V1.53325L106.554 1.75229C107.832 2.00783 108.087 2.29988 108.087 4.8918V9.45504C107.211 9.27251 106.298 9.16299 105.386 9.16299C99.3257 9.16299 96.0767 13.8723 96.0767 19.5672C96.0767 23.4733 98.2305 27.8905 102.648 27.8905C104.838 27.8905 106.882 26.4668 108.27 24.9336H108.306V27.416L108.562 27.5985L116.009 27.2334ZM105.86 24.532C102.392 24.532 101.297 19.6402 101.297 16.9753C101.297 14.4929 101.808 10.8423 105.13 10.8423C106.663 10.8423 108.087 11.974 108.087 13.5802V22.7067C108.087 23.8749 106.955 24.532 105.86 24.532Z" fill="white"/>
<path d="M93.8942 21.3562C93.8942 18.0341 91.7404 16.7199 89.331 15.4422C88.1263 14.7851 86.0089 13.9455 86.0089 12.4122C86.0089 11.171 87.1041 10.3314 88.6009 10.3314C90.4627 10.3314 91.6673 11.317 91.9229 12.4122L92.2515 13.7994H93.0546V9.49174C91.9229 8.98065 90.2436 8.79813 89.0389 8.79813C85.7534 8.79813 82.1758 10.3679 82.1758 14.347C82.1758 17.085 84.0376 18.5817 86.1185 19.6404C88.5644 20.9181 90.0246 21.6482 90.0246 23.4735C90.0246 25.1528 88.3818 25.9194 86.8851 25.9194C85.2423 25.9194 83.8551 25.0068 83.344 23.51L82.8329 21.9768L82.0298 22.1228L82.3583 26.7225C83.49 27.3066 85.1328 27.5987 86.7391 27.5987C90.4627 27.5987 93.8942 25.5178 93.8942 21.3562Z" fill="white"/>
<path d="M80.5785 27.2333V26.6127L79.6658 26.3572C78.3881 25.9921 78.1326 25.8096 78.1326 23.2177V14.2737C78.1326 10.8057 76.0152 8.68832 72.6202 8.68832C70.0283 8.68832 68.3125 10.1486 66.5967 11.8643H66.5602C65.7936 9.85652 63.9683 8.68832 61.4494 8.68832C58.9669 8.68832 57.2512 10.039 55.6084 11.6818H55.5719V9.05338L55.3164 8.87085L47.8691 9.74699V10.4041L48.9278 10.6231C50.2055 10.8787 50.4611 11.1707 50.4611 13.7627V23.2177C50.4611 25.8096 50.2055 25.9921 48.9278 26.3572L48.0152 26.6127V27.2333H58.1273V26.6127L57.2877 26.3572C56.0465 25.9921 55.7909 25.8096 55.7909 23.2177V13.9087C55.7909 12.8865 56.8861 11.7913 58.5654 11.7913C60.4637 11.7913 61.6319 13.069 61.6319 15.2229V23.2177C61.6319 25.8096 61.3763 25.9921 60.1351 26.3572L59.2955 26.6127V27.2333H69.2981V26.6127L68.4585 26.3572C67.2173 25.9921 66.9618 25.8096 66.9618 23.2177V13.9087C66.9618 12.8865 68.0569 11.7913 69.7362 11.7913C71.6345 11.7913 72.8027 13.069 72.8027 15.2229V23.2177C72.8027 25.8096 72.5472 25.9921 71.306 26.3572L70.4663 26.6127V27.2333H80.5785Z" fill="white"/>
<path d="M46.051 17.8878C46.051 12.631 42.9845 8.65182 36.523 8.65182C29.9519 8.65182 26.6299 13.2151 26.6299 18.5084C26.6299 24.1669 30.0614 27.7809 36.1214 27.7809C42.0354 27.7809 46.051 23.8018 46.051 17.8878ZM40.3561 20.1512C40.3561 23.5462 39.4435 26.2842 36.815 26.2842C33.201 26.2842 32.3248 19.129 32.3248 16.3911C32.3248 12.9595 33.0914 10.1851 35.6834 10.1851C39.407 10.1851 40.3561 17.3037 40.3561 20.1512Z" fill="white"/>
<path d="M27.8905 27.2334L27.6715 26.3937C27.416 26.4668 27.1604 26.5398 26.8684 26.5398C24.678 26.5398 22.3051 23.7653 19.8592 20.4433C18.472 18.5815 16.9023 16.3546 16.1721 15.0404C19.2021 14.3833 21.8306 12.339 21.8306 8.90739C21.8306 3.65053 16.6467 2.40933 12.12 2.40933C8.06782 2.40933 4.05216 2.51885 0 2.66487V3.39499L1.05867 3.68704C2.51891 4.08861 2.81096 4.41716 2.81096 7.37414V22.5241C2.81096 25.4811 2.51891 25.8096 1.05867 26.2112L0 26.5033V27.2334H11.7184V26.5033L10.6597 26.2112C9.1995 25.8096 8.90745 25.4811 8.90745 22.5241V4.19812C9.1995 4.12511 9.56456 4.08861 9.89311 4.08861C13.2152 4.08861 15.442 5.98692 15.442 9.41847C15.442 13.0691 13.2882 14.9309 10.0756 14.9309H9.23601C10.3677 16.5736 11.974 19.2021 13.0691 20.9909C15.7341 25.4081 17.8879 28 23.4368 28C24.8606 28 26.5398 27.781 27.8905 27.2334Z" fill="white"/>
</svg>
